<?xml version="1.0" encoding="UTF-8"?>
<svg id="Layer_1" xmlns="http://www.w3.org/2000/svg" version="1.1" viewBox="0 0 256.0446 244.4971">
  <!-- Generator: Adobe Illustrator 30.3.0, SVG Export Plug-In . SVG Version: 2.1.3 Build 182)  -->
  <defs>
    <style>
      .st0 {
        fill: #fff;
      }
    </style>
  </defs>
  <path class="st0" d="M45.5724,47.9914h20.7916c5.8578,0,15.3205,1.6858,20.3317-2.2071,4.3224-3.3579,5.1211-9.7105,1.6728-13.9993-2.3632-2.9392-5.6453-3.6989-9.2094-3.7492-8.2846-.1169-16.579,0-24.8644,0-2.7021,0-5.596.3008-8.2852,0-4.3312-.4845-6.2842-6.019-1.4696-7.6671,1.0001-.3424,1.666-.2451,2.6904-.2885,8.4658-.3587,17.0222,0,25.4959,0,6.8296,0,15.9624.6955,17.6466-8.1265,1.0385-5.4397-2.6776-10.6892-8.0917-11.6589-2.1032-.3767-4.3792-.1701-6.4992-.1701h-40.3798C27.3008.1247,19.1476-.1559,11.0514.1247,4.7109.3444.6004,4.465.3861,10.7894-.4827,36.431.3861,62.2526.3861,87.9057v108.0234c0,7.6477-.1824,15.3206,0,22.9668.2458,10.3049,6.1275,19.5713,15.8605,23.4053,8.3837,3.3025,21.9312,2.7931,29.9667-.9439,11.8412-5.5069,18.4365-18.7703,15.8755-31.5462-1.653-8.2462-7.2166-15.6375-10.4159-23.3629-3.3602-8.1141-5.9695-16.5562-7.7065-25.1663-1.5811-7.8376-3.0399-16.6044-2.3718-24.6377.4116-4.9493,3.7049-4.9193,7.5337-4.9193h26.294c2.2374,0,4.7264.2524,6.9399-.2134,5.2588-1.1065,9.1145-6.2241,8.032-11.6347-1.8264-9.1285-11.1818-8.1075-18.2184-8.1075-8.3291,0-16.756.3857-25.076,0-1.1806-.0547-2.0775.1655-3.2774-.4951-3.9207-2.1587-1.901-6.9986,1.985-7.4604,2.8141-.3344,5.8756,0,8.7044,0,8.3368,0,16.6985.1948,25.033,0,8.8625-.2071,15.4295-10.6324,7.6779-17.4359-4.8913-4.2931-14.6454-2.5198-20.566-2.5198-6.7661,0-14.0683.8078-20.7916,0-5.0609-.608-5.5353-7.2541-.256-7.9555.7592-.1009,1.6004,0,2.3637,0h12.0339c6.8943,0,14.0618.5826,20.9322-.0531,12.5763-1.1637,12.3006-19.2156-.3333-19.9025-6.9447-.3776-14.0132,0-20.9667,0h-11.379c-.8419,0-1.7593.1042-2.5961,0-4.9903-.6214-5.3166-7.4873-.0914-7.9556,3.8152-.3419,3.8511-6.3452,0-6-11.4759,1.0286-13.7153,17.6506-1.653,19.7896,6.4102,1.1367,13.6875.166,20.1603.166,3.5678,0,20.983-2.4322,20.5004,4.1925-.4502,6.1793-16.9066,3.7631-20.655,3.7631-6.385,0-13.2837-.7661-19.6296.1166-12.3726,1.7209-10.4129,19.2089,1.5695,19.8389,6.406.3369,12.919,0,19.3323,0,3.6617,0,19.3861-2.3452,19.386,3.9779,0,6.4318-16.7915,3.9778-20.5036,3.9778-6.4816,0-13.7648-.9737-20.1829.1701-12.1109,2.1584-9.7432,19.1695,1.9681,19.7854,6.4059.3369,12.9191,0,19.3324,0h12.1647c3.3415,0,10.5299,1.5905,6.2769,6.4631-1.8404,2.1085-5.7263,1.4925-8.2166,1.4925h-12.9712c-6.0799,0-13.5576-1.2087-19.5208.3817-5.1922,1.3848-7.2749,6.0412-7.3357,10.9909-.0918,7.4673.6674,14.9768,1.9387,22.3294,2.8595,16.5381,9.4301,31.0098,16.7091,45.9445,7.0694,14.5046-3.0063,32.1937-19.3778,32.6468-11.1308.3081-23.4571-.43-27.549-13.0427-1.0195-3.1423-.9296-6.2791-.9296-9.5076V30.3887c0-6.5531-.8265-13.7118,0-20.2293.8221-6.483,14.5945-4.0347,19.0767-4.0347h50.6469c1.8763,0,4.8368-.4664,6.5608.577,3.9612,2.3976,1.0375,6.9826-2.5021,7.3785-.9138.1022-1.8911,0-2.8097,0h-11.9652c-6.5684,0-13.2422-.3504-19.8028,0-11.67.6233-13.4925,17.2761-1.7751,19.7422,6.2313,1.3115,13.6029.2134,19.9111.2134h12.3424c2.885,0,7.6002-.7548,8.274,3.1391,1.2574,7.2658-15.9694,4.8165-19.9273,4.8165h-18.8436c-3.8607,0-3.8671,6,0,6Z"/>
  <g>
    <path class="st0" d="M201.4345,184.1835c-3.3521-5.6785-6.7042-11.3571-10.0563-17.0356-2.1386-3.6228-4.2771-7.2455-6.4157-10.8683-1.5139-2.5646-1.985-3.6875-5.1092-4.5782-1.6776-.4782-3.3845-.8719-5.0739-1.3071-.7097-.1828-3.4071-.6807-2.2418.1944-.6949-.5219-1.2309-2.0851-1.6821-2.8495-2.3112-3.9153-4.6225-7.8306-6.9337-11.7459l-2.7414-4.644c-.2305-.3905-.7078-.9405-.8176-1.3851-.3436-1.3907.3341.9512.4533.0203.3239-2.5288,1.7033-4.8436.2469-7.2974-1.5204-2.5615-4.2151-2.9789-6.8395-2.2748l3.3879,1.3787c-15.1891-25.7305-30.7332-51.2822-45.5791-77.2116-7.6902-13.4315-3.8951-29.9576,9.3833-38.204l-4.1046-1.0763c17.9346,30.3815,35.8692,60.7631,53.8038,91.1446,2.5312,4.2878,5.0623,8.5757,7.5935,12.8635l.4691-3.6355c-3.849,3.4757-1.7495,9.5058,3.4757,9.9824,1.3478.8984,1.8816.7438,1.6016-.4637l.1972.334c.2802.2242.3994.7735.6191,1.0487,1.0179,1.2756,1.7376,2.9436,2.568,4.3503,2.3388,3.9619,4.6775,7.9238,7.0163,11.8857.5167.8753,1.7336,2.241,1.9325,3.2736l.1972.334c-.8057-1.0154-1.1737-.6993-1.1042.9483-.7489,1.3538-.9039,3.5172-1.2935,5.0265-.9389,3.6363-.4086,4.6284,1.3018,7.5258,2.0555,3.482,4.111,6.964,6.1665,10.4461l10.3057,17.4579c1.9615,3.3228,7.1501.3076,5.1808-3.0283-3.0175-5.1116-6.0349-10.2232-9.0524-15.3349l-6.0326-10.2193c-.724-1.2264-1.5268-2.4399-2.186-3.703-.136-.2606-.4729-.6412-.5505-.9326-.2453-.921.066.0604.0953-.1511.3937-2.8497,3.9117-7.708,1.9869-11.679-1.3897-2.8669-3.2931-5.5785-4.9123-8.3215-1.9474-3.299-3.8949-6.598-5.8423-9.8969-.4385-.7429-.8428-1.7301-1.4124-2.3927-.9315-1.0835-4.7932-3.3515-6.0155-2.2477.976-.8813,1.1197-2.5333.4691-3.6355-17.9346-30.3815-35.8692-60.7631-53.8038-91.1446-2.5312-4.2878-5.0623-8.5757-7.5935-12.8635-.8072-1.3675-2.7197-1.9363-4.1046-1.0763-12.7069,7.8914-19.2705,23.0019-15.33,37.6365,1.6049,5.9604,5.2504,11.2434,8.3588,16.5091,10.6195,17.9896,21.2391,35.9793,31.8586,53.9689l9.1559,15.5102c.6786,1.1495,2.1007,1.724,3.3879,1.3787-1.4963.4014-1.4014,4.9912-.9168,6.3198.3014.8262.9701,1.6433,1.4124,2.3927l5.8423,9.897c1.6206,2.7453,3.0839,5.7087,4.9123,8.3216,2.5044,3.5787,8.4098,2.8829,11.1441,3.901.274.102-.4901-.6721.2195-.0081.2392.2239.3696.6663.5505.9326.7997,1.177,1.4633,2.4789,2.1859,3.703,2.0109,3.4064,4.0217,6.8129,6.0326,10.2193,3.0174,5.1116,6.0349,10.2232,9.0523,15.3348,1.9615,3.3228,7.15.3076,5.1808-3.0283h0Z"/>
    <path class="st0" d="M232.1036,203.1515c2.9412,5.4783,3.2676,13.6942-3.2715,16.7815-5.6548,2.6698-11.9197-1.1686-14.8518-6.053-3.0319-5.0508-3.1637-13.0834,2.5176-16.4245,5.8401-3.4346,12.3957.7054,15.6056,5.696,2.0821,3.2371,7.2779.2321,5.1808-3.0283-4.8733-7.5768-14.5538-12.8296-23.268-8.1337-8.9893,4.8442-10.0146,16.731-5.2169,24.9188,4.4489,7.5926,14.2979,12.4898,22.7213,8.4188,9.6865-4.6816,10.3331-16.6928,5.7637-25.2039-1.8271-3.4033-7.0089-.3766-5.1808,3.0283Z"/>
    <path class="st0" d="M245.2366,195.3989c7.3263,12.9732,7.2255,32.4751-7.6592,40.1705-13.6761,7.0705-29.57-1.8075-36.7301-13.9369-7.5766-12.835-7.0817-32.5495,7.6592-40.1705,13.8103-7.1398,29.3456,1.9315,36.7301,13.9369,2.0196,3.2833,7.2114.273,5.1808-3.0283-7.287-11.847-20.3383-20.7665-34.7275-19.1809-13.902,1.5319-23.8496,12.8854-25.4974,26.4658-1.8219,15.0145,5.8381,30.3854,18.4029,38.613,11.209,7.3398,26.3312,8.0433,36.9152-.8456,13.3352-11.1996,12.8845-30.9258,4.9069-45.0523-1.8987-3.3622-7.0839-.3417-5.1808,3.0283Z"/>
    <path class="st0" d="M160.4657,187.2166c3.1007-5.2547,6.2015-10.5093,9.3022-15.764,2.0525-3.4782,4.1049-6.9564,6.1574-10.4347.673-1.1404,1.3204-2.3023,2.0214-3.4256,1.2051-1.9309-.9831.2803,1.2117-.2906,3.734-.9713,2.1509-6.7601-1.595-5.7857-3.5003.9105-4.1443,1.9411-5.8091,4.7623-2.0551,3.4828-4.1103,6.9655-6.1654,10.4483-3.4346,5.8205-6.8693,11.6411-10.3039,17.4616-1.9667,3.3329,3.2177,6.3551,5.1808,3.0283h0Z"/>
    <path class="st0" d="M155.9782,131.3074c-1.5639,2.6538-1.7381,3.7294-.9263,6.8892.442,1.7205.6194,4.2509,1.4899,5.7889.7439,1.3142.8273-.2647.7146.5105-.152,1.0457-1.5245,2.5834-2.0621,3.4946l-3.5623,6.0369c-4.085,6.9227-8.17,13.8453-12.255,20.768-1.9667,3.3329,3.2177,6.3551,5.1808,3.0283,4.085-6.9227,8.17-13.8453,12.255-20.768,1.8232-3.0897,4.0471-6.1741,5.5635-9.4282.7684-1.6489.5989-2.6345.1485-4.4745-.536-2.1899-1.1299-4.3668-1.6872-6.5515-.4049-1.5874-.6534.0868-.5209-.8365.0607-.4227.6219-1.0553.8423-1.4293,1.9647-3.334-3.2196-6.3563-5.1808-3.0283h0Z"/>
    <path class="st0" d="M180.9513,104.3338c17.0779-28.934,34.1558-57.8679,51.2338-86.8019,2.4073-4.0786,4.8147-8.1572,7.222-12.2358l-4.1046,1.0763c12.9898,8.067,17.1715,24.4706,9.6364,37.7738-2.4239,4.2795-5.0044,8.4778-7.5045,12.713-10.0626,17.0467-20.1252,34.0933-30.1879,51.14-2.7138,4.5973-5.4276,9.1946-8.1414,13.7919l3.3879-1.3787c-3.048-.8212-6.261.1124-7.2946,3.4261-.4426,1.4192-.2854,3.1718.2911,4.5458.7591,1.809,1.0648,1.2482.0731,2.9326-1.9634,3.3347,3.2209,6.3572,5.1808,3.0283.4456-.7568,1.2084-1.7028,1.404-2.5876.2351-1.0633-.2335-5.2857-1.2496-5.5595,1.2879.347,2.7103-.2307,3.3879-1.3787,7.8999-13.3828,15.7997-26.7657,23.6996-40.1485,5.2522-8.8976,10.5045-17.7952,15.7567-26.6928,2.8106-4.7613,6.0791-9.5068,8.2921-14.5937,6.769-15.5599.4934-33.376-13.7036-42.1928-1.381-.8577-3.297-.2919-4.1046,1.0763-17.0779,28.934-34.1558,57.8679-51.2338,86.8019-2.4073,4.0786-4.8147,8.1572-7.222,12.2358-1.9671,3.3327,3.2174,6.3549,5.1808,3.0283h0Z"/>
    <path class="st0" d="M119.433,200.1232c-4.4835,8.3509-3.9988,19.9525,5.2168,24.9187,8.5096,4.5857,18.6681-.392,23.2681-8.1336,4.706-7.9201,3.8616-19.6265-4.6702-24.6337-8.7807-5.1533-18.8194.082-23.8148,7.8486-2.095,3.2571,3.0965,6.2689,5.1808,3.0283,3.0858-4.7976,9.0847-8.7758,14.8518-6.0531,6.4053,3.024,6.404,11.3935,3.2715,16.7815-2.6818,4.6128-8.653,8.4229-14.0981,6.41-7.1992-2.6613-7.0834-11.4423-4.0252-17.1385,1.8263-3.4016-3.3517-6.4352-5.1808-3.0283Z"/>
    <path class="st0" d="M106.3,192.3706c-7.137,12.6379-8.3814,29.2271,1.0778,41.0947,8.598,10.7871,23.3337,13.0382,35.5935,7.5955,13.7117-6.0873,23.0502-20.3662,23.791-35.2614.689-13.8527-7.0259-27.6124-20.7835-31.659-15.7988-4.647-31.5609,5.0321-39.6789,18.2302-2.0286,3.298,3.1591,6.3152,5.1808,3.0283,7.3846-12.0057,22.9192-21.0769,36.73-13.9369,14.7423,7.6216,15.2355,27.3361,7.6592,40.1705-7.1605,12.1302-23.0546,21.007-36.73,13.9369-14.8846-7.6953-14.9855-27.1975-7.6592-40.1705,1.9013-3.3667-3.28-6.3942-5.1808-3.0283Z"/>
    <path class="st0" d="M174.8836,138.734c3.2889,1.7364,7.4396.8793,9.3875-2.4372,1.899-3.2333.7514-7.4691-2.4372-9.3875-3.1857-1.9167-7.5205-.7463-9.3876,2.4372-1.9529,3.3298-.6748,7.3452,2.4373,9.3875,3.2376,2.1246,6.247-3.0686,3.0283-5.1808-1.0344-.6788.0724-2.0359.8937-1.463.467.3258.5308.8108.2846,1.1783-.3356.5009-.7946.4872-1.1783.2846-3.4123-1.8015-6.448,3.3754-3.0283,5.1808Z"/>
  </g>
</svg>